# xmcd
#
# Track frame offsets: 
#        150
#        12050
#        22082
#        35337
#        51590
#        65617
#        80537
#        96130
#        111120
#        125917
#        139245
#        153742
#
# Disc length: 2246 seconds
#
# Revision: 1
# Processed by: cddbd v1.5.2PL0 Copyright (c) Steve Scherf et al.
# Submitted via: ExactAudioCopy v0.95b4
#
DISCID=aa08c40c
DTITLE=Mickey Gilley - 36 All-Time Greatest Hits - Disc 3
DYEAR=2001
DGENRE=Country
TTITLE0=One Has My Name, The Other Has My Heart
TTITLE1=The Song We Made Love To
TTITLE2=True Love Ways
TTITLE3=Stand By Me
TTITLE4=You Don't Know Me
TTITLE5=Talk To Me
TTITLE6=I Really Don't Want To Know
TTITLE7=Put Your Dreams Away
TTITLE8=Fool For Your Love
TTITLE9=You've Really Got A Hold On Me
TTITLE10=Then You Can Tell Me Goodbye
TTITLE11=Doo-Wah Days
EXTD=Entered By Itaot...
EXTT0=
EXTT1=
EXTT2=
EXTT3=
EXTT4=
EXTT5=
EXTT6=
EXTT7=
EXTT8=
EXTT9=
EXTT10=
EXTT11=
PLAYORDER=
